<mxfile host="app.diagrams.net" modified="2024-05-20T02:55:40.326Z" agent="Mozilla/5.0 (Windows NT 10.0; Win64; x64) AppleWebKit/537.36 (KHTML, like Gecko) Chrome/125.0.0.0 Safari/537.36 Edg/125.0.0.0" etag="wdGVPiKje93LIMBF2_FO" version="24.4.0" type="github">
  <diagram name="Page-1" id="QrqH7uNbVsUMYq2CJgTx">
    <mxGraphModel dx="1293" dy="799" grid="1" gridSize="10" guides="1" tooltips="1" connect="1" arrows="1" fold="1" page="1" pageScale="1" pageWidth="850" pageHeight="1100" math="0" shadow="0">
      <root>
        <mxCell id="0" />
        <mxCell id="1" parent="0" />
        <mxCell id="fMPETmtQkRFptXQYRWZE-1" value="" style="whiteSpace=wrap;html=1;aspect=fixed;fillColor=#f5f5f5;fontColor=#333333;strokeColor=#666666;" vertex="1" parent="1">
          <mxGeometry x="240" y="340" width="320" height="320" as="geometry" />
        </mxCell>
        <mxCell id="fMPETmtQkRFptXQYRWZE-2" value="vLab" style="text;html=1;align=center;verticalAlign=middle;whiteSpace=wrap;rounded=0;" vertex="1" parent="1">
          <mxGeometry x="360" y="350" width="60" height="30" as="geometry" />
        </mxCell>
        <mxCell id="fMPETmtQkRFptXQYRWZE-4" value="" style="rounded=0;whiteSpace=wrap;html=1;fillColor=#ffe6cc;strokeColor=#d79b00;" vertex="1" parent="1">
          <mxGeometry x="275" y="400" width="250" height="110" as="geometry" />
        </mxCell>
        <mxCell id="fMPETmtQkRFptXQYRWZE-5" value="" style="rounded=0;whiteSpace=wrap;html=1;fillColor=#f8cecc;strokeColor=#b85450;" vertex="1" parent="1">
          <mxGeometry x="275" y="530" width="250" height="110" as="geometry" />
        </mxCell>
        <mxCell id="fMPETmtQkRFptXQYRWZE-6" value="OAM-a" style="text;html=1;align=center;verticalAlign=middle;whiteSpace=wrap;rounded=0;" vertex="1" parent="1">
          <mxGeometry x="275" y="400" width="60" height="30" as="geometry" />
        </mxCell>
        <mxCell id="fMPETmtQkRFptXQYRWZE-7" value="FEPH-a" style="text;html=1;align=center;verticalAlign=middle;whiteSpace=wrap;rounded=0;" vertex="1" parent="1">
          <mxGeometry x="280" y="530" width="60" height="30" as="geometry" />
        </mxCell>
        <mxCell id="fMPETmtQkRFptXQYRWZE-8" value="" style="whiteSpace=wrap;html=1;aspect=fixed;fillColor=#f5f5f5;fontColor=#333333;strokeColor=#666666;" vertex="1" parent="1">
          <mxGeometry x="590" y="340" width="320" height="320" as="geometry" />
        </mxCell>
        <mxCell id="fMPETmtQkRFptXQYRWZE-9" value="vLab pl-036" style="text;html=1;align=center;verticalAlign=middle;whiteSpace=wrap;rounded=0;" vertex="1" parent="1">
          <mxGeometry x="705" y="350" width="80" height="30" as="geometry" />
        </mxCell>
        <mxCell id="fMPETmtQkRFptXQYRWZE-10" value="" style="rounded=0;whiteSpace=wrap;html=1;" vertex="1" parent="1">
          <mxGeometry x="607" y="385" width="290" height="255" as="geometry" />
        </mxCell>
        <mxCell id="fMPETmtQkRFptXQYRWZE-13" value="sbcweb" style="text;html=1;align=center;verticalAlign=middle;whiteSpace=wrap;rounded=0;" vertex="1" parent="1">
          <mxGeometry x="706" y="389" width="80" height="30" as="geometry" />
        </mxCell>
        <mxCell id="fMPETmtQkRFptXQYRWZE-15" value="VMTCA Container" style="swimlane;whiteSpace=wrap;html=1;fillColor=#dae8fc;strokeColor=#6c8ebf;" vertex="1" parent="1">
          <mxGeometry x="632" y="530" width="240" height="90" as="geometry" />
        </mxCell>
        <mxCell id="fMPETmtQkRFptXQYRWZE-16" value="pip3 install firebase-admin&lt;div&gt;tar -czf&amp;nbsp;site-packages ...&lt;/div&gt;" style="text;html=1;align=center;verticalAlign=middle;whiteSpace=wrap;rounded=0;" vertex="1" parent="fMPETmtQkRFptXQYRWZE-15">
          <mxGeometry x="45" y="35" width="150" height="30" as="geometry" />
        </mxCell>
        <mxCell id="fMPETmtQkRFptXQYRWZE-17" value="Squid Container" style="swimlane;whiteSpace=wrap;html=1;fillColor=#dae8fc;strokeColor=#6c8ebf;" vertex="1" parent="1">
          <mxGeometry x="632" y="424" width="240" height="75" as="geometry" />
        </mxCell>
        <mxCell id="fMPETmtQkRFptXQYRWZE-18" value="HTTP/HTTPS Proxy&lt;div&gt;http://sbcweb.int.nokia-sbell.com/&lt;br&gt;&lt;/div&gt;" style="text;html=1;align=center;verticalAlign=middle;whiteSpace=wrap;rounded=0;" vertex="1" parent="fMPETmtQkRFptXQYRWZE-17">
          <mxGeometry x="33" y="34" width="185" height="30" as="geometry" />
        </mxCell>
        <mxCell id="fMPETmtQkRFptXQYRWZE-23" value="" style="group" vertex="1" connectable="0" parent="1">
          <mxGeometry x="316" y="430" width="155" height="60" as="geometry" />
        </mxCell>
        <mxCell id="fMPETmtQkRFptXQYRWZE-22" value="" style="rounded=1;whiteSpace=wrap;html=1;" vertex="1" parent="fMPETmtQkRFptXQYRWZE-23">
          <mxGeometry width="155" height="60" as="geometry" />
        </mxCell>
        <mxCell id="fMPETmtQkRFptXQYRWZE-21" value="&lt;div&gt;systemctl start squid&lt;/div&gt;HTTP/HTTPS Proxy&lt;div&gt;http://auto09-oam-a:3128/&lt;br&gt;&lt;/div&gt;" style="text;html=1;align=center;verticalAlign=middle;whiteSpace=wrap;rounded=0;" vertex="1" parent="fMPETmtQkRFptXQYRWZE-23">
          <mxGeometry y="9" width="150" height="39" as="geometry" />
        </mxCell>
        <mxCell id="fMPETmtQkRFptXQYRWZE-24" value="" style="group" vertex="1" connectable="0" parent="1">
          <mxGeometry x="316" y="564" width="190" height="60" as="geometry" />
        </mxCell>
        <mxCell id="fMPETmtQkRFptXQYRWZE-25" value="" style="rounded=1;whiteSpace=wrap;html=1;" vertex="1" parent="fMPETmtQkRFptXQYRWZE-24">
          <mxGeometry width="155" height="60" as="geometry" />
        </mxCell>
        <mxCell id="fMPETmtQkRFptXQYRWZE-26" value="export https_proxy=xxx&lt;div&gt;&lt;div&gt;python messging.py&lt;div&gt;&lt;/div&gt;&lt;/div&gt;&lt;/div&gt;" style="text;html=1;align=center;verticalAlign=middle;whiteSpace=wrap;rounded=0;" vertex="1" parent="fMPETmtQkRFptXQYRWZE-24">
          <mxGeometry x="-45" y="10.5" width="250" height="39" as="geometry" />
        </mxCell>
        <mxCell id="fMPETmtQkRFptXQYRWZE-27" value="Nokia IT&lt;div&gt;Proxy&lt;/div&gt;" style="ellipse;shape=cloud;whiteSpace=wrap;html=1;" vertex="1" parent="1">
          <mxGeometry x="939.96" y="423.5" width="120" height="80" as="geometry" />
        </mxCell>
        <mxCell id="fMPETmtQkRFptXQYRWZE-28" value="Google" style="ellipse;shape=cloud;whiteSpace=wrap;html=1;" vertex="1" parent="1">
          <mxGeometry x="1120" y="424" width="120" height="80" as="geometry" />
        </mxCell>
        <mxCell id="fMPETmtQkRFptXQYRWZE-32" value="" style="endArrow=classic;html=1;rounded=0;exitX=0.5;exitY=0;exitDx=0;exitDy=0;entryX=0.5;entryY=1;entryDx=0;entryDy=0;" edge="1" parent="1" source="fMPETmtQkRFptXQYRWZE-25" target="fMPETmtQkRFptXQYRWZE-22">
          <mxGeometry width="50" height="50" relative="1" as="geometry">
            <mxPoint x="430" y="540" as="sourcePoint" />
            <mxPoint x="480" y="490" as="targetPoint" />
          </mxGeometry>
        </mxCell>
        <mxCell id="fMPETmtQkRFptXQYRWZE-33" value="" style="endArrow=classic;html=1;rounded=0;entryX=0;entryY=0.5;entryDx=0;entryDy=0;" edge="1" parent="1" target="fMPETmtQkRFptXQYRWZE-17">
          <mxGeometry width="50" height="50" relative="1" as="geometry">
            <mxPoint x="471" y="460" as="sourcePoint" />
            <mxPoint x="521" y="410" as="targetPoint" />
          </mxGeometry>
        </mxCell>
        <mxCell id="fMPETmtQkRFptXQYRWZE-34" value="" style="endArrow=classic;html=1;rounded=0;entryX=0.084;entryY=0.581;entryDx=0;entryDy=0;entryPerimeter=0;" edge="1" parent="1" target="fMPETmtQkRFptXQYRWZE-27">
          <mxGeometry width="50" height="50" relative="1" as="geometry">
            <mxPoint x="873" y="469" as="sourcePoint" />
            <mxPoint x="940" y="469" as="targetPoint" />
          </mxGeometry>
        </mxCell>
        <mxCell id="fMPETmtQkRFptXQYRWZE-36" value="" style="endArrow=classic;html=1;rounded=0;entryX=0.098;entryY=0.56;entryDx=0;entryDy=0;entryPerimeter=0;exitX=0.997;exitY=0.659;exitDx=0;exitDy=0;exitPerimeter=0;" edge="1" parent="1" target="fMPETmtQkRFptXQYRWZE-28">
          <mxGeometry width="50" height="50" relative="1" as="geometry">
            <mxPoint x="1055.96" y="468" as="sourcePoint" />
            <mxPoint x="1105.96" y="469" as="targetPoint" />
          </mxGeometry>
        </mxCell>
        <UserObject label="http://proxy.lbs.alcatel-lucent.com:8000/" link="http://proxy.lbs.alcatel-lucent.com:8000/" id="fMPETmtQkRFptXQYRWZE-39">
          <mxCell style="text;whiteSpace=wrap;" vertex="1" parent="1">
            <mxGeometry x="917.96" y="506" width="240" height="40" as="geometry" />
          </mxCell>
        </UserObject>
        <UserObject label="oauth2.googleapis.com:443" link="oauth2.googleapis.com:443" id="fMPETmtQkRFptXQYRWZE-40">
          <mxCell style="text;whiteSpace=wrap;" vertex="1" parent="1">
            <mxGeometry x="1095" y="400" width="180" height="40" as="geometry" />
          </mxCell>
        </UserObject>
        <mxCell id="fMPETmtQkRFptXQYRWZE-41" value="" style="endArrow=classic;html=1;rounded=0;entryX=0.794;entryY=-0.023;entryDx=0;entryDy=0;entryPerimeter=0;" edge="1" parent="1">
          <mxGeometry width="50" height="50" relative="1" as="geometry">
            <mxPoint x="631.5" y="594.2" as="sourcePoint" />
            <mxPoint x="471" y="593.8030000000001" as="targetPoint" />
          </mxGeometry>
        </mxCell>
        <mxCell id="fMPETmtQkRFptXQYRWZE-42" value="install google apk" style="text;html=1;align=center;verticalAlign=middle;whiteSpace=wrap;rounded=0;fontColor=#999999;" vertex="1" parent="1">
          <mxGeometry x="500" y="564" width="105" height="30" as="geometry" />
        </mxCell>
        <mxCell id="fMPETmtQkRFptXQYRWZE-43" value="HTTP :3128" style="text;html=1;align=center;verticalAlign=middle;whiteSpace=wrap;rounded=0;fontColor=#999999;" vertex="1" parent="1">
          <mxGeometry x="390" y="506" width="105" height="30" as="geometry" />
        </mxCell>
        <mxCell id="fMPETmtQkRFptXQYRWZE-44" value="HTTP :80" style="text;html=1;align=center;verticalAlign=middle;whiteSpace=wrap;rounded=0;fontColor=#999999;" vertex="1" parent="1">
          <mxGeometry x="495" y="440" width="105" height="30" as="geometry" />
        </mxCell>
        <mxCell id="fMPETmtQkRFptXQYRWZE-45" value="HTTP :8000" style="text;html=1;align=center;verticalAlign=middle;whiteSpace=wrap;rounded=0;fontColor=#999999;" vertex="1" parent="1">
          <mxGeometry x="860" y="445" width="105" height="30" as="geometry" />
        </mxCell>
        <mxCell id="fMPETmtQkRFptXQYRWZE-46" value="HTTPS :443" style="text;html=1;align=center;verticalAlign=middle;whiteSpace=wrap;rounded=0;fontColor=#999999;" vertex="1" parent="1">
          <mxGeometry x="1040" y="440" width="105" height="30" as="geometry" />
        </mxCell>
      </root>
    </mxGraphModel>
  </diagram>
</mxfile>
